<svg width="24" height="24" viewBox="0 0 24 24" fill="none" xmlns="http://www.w3.org/2000/svg">
<path d="M11.5277 9.4723C11.653 9.59754 11.8229 9.66789 12 9.66789C12.1771 9.66789 12.347 9.59754 12.4723 9.4723L15.8125 6.13213C15.9342 6.00613 16.0015 5.83739 16 5.66223C15.9985 5.48707 15.9282 5.31952 15.8043 5.19566C15.6805 5.0718 15.5129 5.00155 15.3378 5.00003C15.1626 4.9985 14.9939 5.06584 14.8679 5.18753L12 8.0554L9.13213 5.18753C9.00613 5.06584 8.83739 4.9985 8.66223 5.00003C8.48707 5.00155 8.31952 5.0718 8.19566 5.19566C8.07181 5.31952 8.00155 5.48707 8.00003 5.66223C7.9985 5.83739 8.06584 6.00613 8.18753 6.13213L11.5277 9.4723Z" fill="#20252F"/>
<path d="M9.14619 18.4712L12.0082 15.6092L14.8702 18.4712C14.9959 18.5926 15.1643 18.6598 15.3391 18.6583C15.5139 18.6568 15.6811 18.5867 15.8047 18.4631C15.9283 18.3395 15.9985 18.1723 16 17.9975C16.0015 17.8227 15.9343 17.6543 15.8129 17.5285L12.4795 14.1952C12.3545 14.0702 12.185 14 12.0082 14C11.8314 14 11.6619 14.0702 11.5369 14.1952L8.20353 17.5285C8.13985 17.59 8.08906 17.6636 8.05412 17.7449C8.01919 17.8263 8.00079 17.9137 8.00003 18.0023C7.99926 18.0908 8.01612 18.1786 8.04964 18.2605C8.08317 18.3424 8.13267 18.4169 8.19526 18.4795C8.25786 18.542 8.33229 18.5916 8.41422 18.6251C8.49615 18.6586 8.58394 18.6755 8.67246 18.6747C8.76098 18.6739 8.84846 18.6555 8.9298 18.6206C9.01113 18.5857 9.08469 18.5349 9.14619 18.4712Z" fill="#20252F"/>
</svg>
