<svg width="24" height="24" viewBox="0 0 24 24" fill="none" xmlns="http://www.w3.org/2000/svg">
<path d="M12.4723 5.19559C12.347 5.07035 12.1771 5 12 5C11.8229 5 11.653 5.07035 11.5277 5.19559L8.18753 8.53576C8.06584 8.66176 7.9985 8.8305 8.00003 9.00566C8.00155 9.18082 8.0718 9.34837 8.19566 9.47223C8.31952 9.59609 8.48707 9.66634 8.66223 9.66786C8.83739 9.66939 9.00613 9.60205 9.13213 9.48036L12 6.61249L14.8679 9.48036C14.9939 9.60205 15.1626 9.66939 15.3378 9.66786C15.5129 9.66634 15.6805 9.59609 15.8043 9.47223C15.9282 9.34837 15.9985 9.18082 16 9.00566C16.0015 8.8305 15.9342 8.66176 15.8125 8.53576L12.4723 5.19559Z" fill="#20252F"/>
<path d="M14.8538 14.2035L11.9918 17.0655L9.12981 14.2035C9.00407 14.0821 8.83567 14.0149 8.66087 14.0164C8.48608 14.0179 8.31887 14.088 8.19526 14.2116C8.07166 14.3353 8.00154 14.5025 8.00003 14.6773C7.99851 14.8521 8.0657 15.0205 8.18714 15.1462L11.5205 18.4795C11.6455 18.6045 11.815 18.6747 11.9918 18.6747C12.1686 18.6747 12.3381 18.6045 12.4631 18.4795L15.7965 15.1462C15.8601 15.0847 15.9109 15.0111 15.9459 14.9298C15.9808 14.8485 15.9992 14.761 16 14.6725C16.0007 14.5839 15.9839 14.4962 15.9504 14.4142C15.9168 14.3323 15.8673 14.2579 15.8047 14.1953C15.7421 14.1327 15.6677 14.0832 15.5858 14.0496C15.5038 14.0161 15.4161 13.9993 15.3275 14C15.239 14.0008 15.1515 14.0192 15.0702 14.0541C14.9889 14.0891 14.9153 14.1399 14.8538 14.2035Z" fill="#20252F"/>
</svg>
