<?xml version="1.0" encoding="utf-8"?>
<!-- Svg Vector Icons : http://www.onlinewebfonts.com/icon -->
<!DOCTYPE svg PUBLIC "-//W3C//DTD SVG 1.1//EN" "http://www.w3.org/Graphics/SVG/1.1/DTD/svg11.dtd">
<svg version="1.1" xmlns="http://www.w3.org/2000/svg" xmlns:xlink="http://www.w3.org/1999/xlink" x="0px" y="0px" viewBox="0 0 1000 1000" enable-background="new 0 0 1000 1000" xml:space="preserve">
<metadata> Svg Vector Icons : http://www.onlinewebfonts.com/icon </metadata>
<g><g transform="translate(0.000000,512.000000) scale(0.100000,-0.100000)"><path d="M4465.5,4999.4c-830.8-68.9-1634.8-333.1-2193.7-721.7c-224-155.1-587.7-528.3-742.7-761.9c-285.2-430.7-425-848-503.5-1500.8c-55.5-476.6-183.8-1006.9-331.2-1366.8c-103.4-254.6-206.7-423-367.5-601.1C66.6-241.8,32.1-450.4,214-615.1c91.9-82.3,164.6-103.4,415.4-118.7c141.7-9.6,197.2-21.1,197.2-38.3c0-13.4-21.1-112.9-47.9-222.1c-74.7-312-59.3-413.5,82.3-532.2c74.7-63.2,74.7-65.1,49.8-128.3c-30.6-72.7-34.5-193.3-7.7-264.2c9.6-26.8,45.9-84.2,80.4-126.3c59.3-74.7,61.3-82.3,74.7-329.2c19.1-317.8,26.8-359.9,93.8-490.1c103.4-202.9,317.8-367.5,566.6-432.6c147.4-38.3,348.4-38.3,627.9,0c126.3,17.2,260.3,24.9,306.3,19.1c95.7-15.3,225.9-88,264.2-147.4c17.2-24.9,91.9-112.9,166.5-197.2c241.2-273.7,294.8-421.1,317.8-895.9l13.4-262.3H5480c1640.5,0,2065.5,5.7,2065.5,24.9c0,11.5-21.1,130.2-45.9,262.3c-116.8,597.2-151.2,1380.2-80.4,1895.1c95.7,710.2,224,1064.3,668.1,1837.7c105.3,183.8,233.5,421.1,283.3,526.4c97.7,202.9,218.2,541.7,237.4,670l13.4,76.6l-1232.8-3.8c-712.1-1.9-1290.2,3.8-1372.5,13.4c-331.1,44-562.8,271.8-614.5,606.8c-13.4,86.1-19.2,731.2-15.3,1920c5.7,1579.2,9.6,1799.4,36.4,1868.3l30.6,78.5l-143.6,13.4C5124,5024.3,4718.2,5018.5,4465.5,4999.4z"/><path d="M5960.5,4987.9c-34.5-17.2-86.1-61.3-114.9-97.6l-51.7-67l-5.7-840.4l-5.8-838.4h356c346.5,0,354.1,1.9,335,36.4c-34.4,67-23,201,24.9,271.8c95.7,143.6,260.3,191.4,409.7,118.7c128.2-59.3,197.1-237.4,151.2-382.8l-13.4-44h306.3h308.2v938v938H6843C6123.2,5020.4,6016,5016.6,5960.5,4987.9z"/><path d="M8024,4666.3c0-346.5,1.9-354.1,36.4-335c67,34.5,201,23,271.8-24.9c143.6-95.7,191.4-260.3,118.7-409.7c-59.3-124.4-227.8-193.3-373.3-153.1l-53.6,13.4v-306.3v-306.3h938h938v819.3c0,811.6,0,817.4-44,894c-24.9,42.1-76.6,93.8-118.7,118.7c-76.6,44-82.3,44-893.9,44H8024V4666.3z"/><path d="M5788.2,1942.4l5.7-840.4l51.7-67c99.5-132.1,91.9-130.2,999.2-130.2h815.5V1259c0,346.5-1.9,354.1-36.4,335c-67-34.5-201-23-271.8,24.9c-143.6,95.7-191.4,260.3-118.7,409.7c59.3,128.3,237.3,197.2,384.8,151.2l42.1-13.4v306.3v308.2h-938h-939.9L5788.2,1942.4z"/><path d="M8024,1842.8V902.9l838.5,5.8l836.5,5.7l63.2,44c34.4,24.9,78.5,78.5,99.5,118.7c36.4,70.8,38.3,116.8,38.3,890.1v813.5h-354.1c-346.5,0-354.1-1.9-335-36.4c9.6-21.1,19.1-76.6,19.1-122.5c0-157-143.6-300.5-300.5-300.5c-220.1,0-365.6,193.3-306.3,407.7l13.4,51.7h-306.3H8024V1842.8z"/></g></g>
</svg>